<svg xmlns="http://www.w3.org/2000/svg" xmlns:xlink="http://www.w3.org/1999/xlink" width="500" zoomAndPan="magnify" viewBox="0 0 375 374.999991" height="500" preserveAspectRatio="xMidYMid meet" version="1.0"><defs><clipPath id="de583726eb"><path d="M 43 3 L 332 3 L 332 372 L 43 372 Z M 43 3 " clip-rule="nonzero"/></clipPath><clipPath id="6259145442"><path d="M 51.886719 -1.957031 L 332.300781 5.097656 L 322.941406 376.980469 L 42.527344 369.921875 Z M 51.886719 -1.957031 " clip-rule="nonzero"/></clipPath><clipPath id="117b620b37"><path d="M 51.890625 -2.09375 L 332.304688 4.964844 L 322.945312 376.847656 L 42.53125 369.789062 Z M 51.890625 -2.09375 " clip-rule="nonzero"/></clipPath></defs><g clip-path="url(#de583726eb)"><g clip-path="url(#6259145442)"><g clip-path="url(#117b620b37)"><path fill="#32b261" d="M 61.738281 14.824219 L 193.785156 8.324219 L 194.242188 19.722656 L 195.722656 52.582031 C 199.101562 69.1875 213.824219 75.660156 213.824219 75.660156 C 208.574219 83.121094 205.054688 92.855469 205.054688 92.855469 L 197.230469 93.179688 L 166.90625 94.425781 L 163.109375 94.554688 L 132.785156 95.800781 L 124.96875 95.828125 C 124.96875 95.828125 120.667969 86.414062 114.816406 79.421875 C 114.816406 79.421875 128.851562 71.738281 131.359375 54.832031 L 130.414062 33.375 L 73.105469 36.25 L 65.914062 321.929688 C 67.417969 321.445312 69.207031 321.265625 71.214844 321.316406 L 257.378906 311.640625 L 264.550781 26.703125 L 210 29.347656 L 209.285156 7.597656 L 286.78125 3.820312 L 278.515625 332.339844 L 75.882812 342.867188 C 85.867188 348.402344 97.457031 349.214844 99.167969 349.257812 L 301.785156 339.25 L 308.957031 54.316406 L 296.0625 55.03125 L 296.613281 33.089844 L 331.488281 31.4375 L 323.21875 359.960938 L 99.660156 371.003906 L 98.910156 371.207031 C 98.910156 371.207031 70.425781 370.492188 52.949219 352.117188 C 43.824219 345.113281 43.574219 334.242188 43.625 332.234375 L 51.597656 15.539062 Z M 165.371094 105.179688 L 197.933594 103.691406 C 197.933594 103.691406 195.183594 153.859375 231.042969 192.792969 L 176.390625 288.316406 L 172.867188 197.652344 C 178.199219 195.777344 181.898438 190.808594 181.523438 184.996094 C 181.1875 177.695312 175.300781 171.964844 168 172.300781 C 160.695312 172.636719 155.257812 178.828125 155.304688 185.824219 C 155.679688 191.640625 159.574219 196.5 165.121094 197.90625 L 168.644531 288.566406 L 106.558594 197.546875 C 139.382812 156.027344 132.816406 106.371094 132.816406 106.371094 Z M 165.371094 105.179688 " fill-opacity="1" fill-rule="nonzero"/></g></g></g></svg>