<svg xmlns="http://www.w3.org/2000/svg" xmlns:xlink="http://www.w3.org/1999/xlink" width="500" zoomAndPan="magnify" viewBox="0 0 375 374.999991" height="500" preserveAspectRatio="xMidYMid meet" version="1.0"><defs><clipPath id="b55f595f3a"><path d="M 47.164062 1.511719 L 327.664062 1.511719 L 327.664062 373.378906 L 47.164062 373.378906 Z M 47.164062 1.511719 " clip-rule="nonzero"/></clipPath></defs><g clip-path="url(#b55f595f3a)"><path fill="#242222" d="M 57.433594 18.042969 L 189.273438 8.222656 L 190.019531 19.605469 L 192.324219 52.417969 C 196.121094 68.933594 211 75.035156 211 75.035156 C 205.941406 82.625 202.667969 92.445312 202.667969 92.445312 L 194.855469 92.964844 L 164.574219 94.972656 L 160.777344 95.199219 L 130.496094 97.207031 L 122.683594 97.429688 C 122.683594 97.429688 118.144531 88.128906 112.117188 81.285156 C 112.117188 81.285156 125.957031 73.25 128.039062 56.285156 L 126.554688 34.859375 L 69.335938 39.175781 L 69.335938 324.945312 C 70.824219 324.421875 72.609375 324.199219 74.621094 324.199219 L 260.480469 309.839844 L 260.480469 24.816406 L 206.015625 28.832031 L 204.75 7.109375 L 282.128906 1.378906 L 282.128906 330.003906 L 79.828125 345.628906 C 89.945312 350.910156 101.554688 351.429688 103.265625 351.429688 L 305.566406 336.328125 L 305.566406 51.300781 L 292.695312 52.34375 L 292.695312 30.394531 L 327.515625 27.867188 L 327.515625 356.488281 L 104.304688 373.15625 L 103.5625 373.378906 C 103.5625 373.378906 75.066406 373.378906 57.132812 355.449219 C 47.835938 348.679688 47.3125 337.816406 47.3125 335.808594 L 47.3125 19.011719 Z M 163.308594 105.761719 L 195.824219 103.457031 C 195.824219 103.457031 194.335938 153.675781 231.164062 191.695312 L 178.933594 288.5625 L 173.128906 198.019531 C 178.410156 196.007812 181.984375 190.949219 181.460938 185.148438 C 180.941406 177.855469 174.914062 172.277344 167.625 172.796875 C 160.332031 173.316406 155.050781 179.640625 155.273438 186.636719 C 155.792969 192.4375 159.8125 197.199219 165.390625 198.464844 L 171.195312 289.007812 L 106.835938 199.582031 C 138.605469 157.246094 130.792969 107.769531 130.792969 107.769531 Z M 163.308594 105.761719 " fill-opacity="1" fill-rule="nonzero"/></g></svg>